<?xml version="1.0" standalone="no"?>
<!DOCTYPE svg PUBLIC "-//W3C//DTD SVG 20010904//EN"
 "http://www.w3.org/TR/2001/REC-SVG-20010904/DTD/svg10.dtd">
<svg version="1.0" xmlns="http://www.w3.org/2000/svg"
 width="1024.000000pt" height="1024.000000pt" viewBox="0 0 1024.000000 1024.000000"
 preserveAspectRatio="xMidYMid meet">
<metadata>
Created by potrace 1.14, written by Peter Selinger 2001-2017
</metadata>
<g transform="translate(0.000000,1024.000000) scale(0.100000,-0.100000)"
fill="#000000" stroke="none">
<path d="M2060 10229 c-25 -5 -51 -7 -58 -4 -8 3 -10 0 -6 -6 5 -8 -3 -10 -24
-7 -17 2 -28 0 -25 -4 3 -5 -3 -8 -13 -6 -11 2 -18 -2 -17 -7 1 -6 -11 -10
-25 -9 -15 1 -32 -3 -39 -8 -7 -5 -16 -7 -22 -4 -5 3 -11 2 -13 -4 -2 -6 -14
-12 -28 -15 -14 -3 -30 -11 -36 -20 -8 -11 -13 -12 -22 -3 -9 9 -12 8 -12 -3
0 -9 -6 -16 -13 -16 -6 0 -31 -12 -54 -26 -24 -15 -45 -27 -48 -27 -3 0 -16
-9 -29 -21 -13 -12 -27 -20 -30 -20 -11 2 -34 -24 -29 -31 2 -5 -5 -8 -17 -8
-12 0 -18 -4 -15 -10 3 -5 2 -10 -4 -10 -13 0 -97 -84 -148 -148 -21 -26 -42
-50 -48 -54 -7 -5 -7 -8 0 -8 6 0 -1 -10 -15 -21 -14 -11 -18 -18 -10 -14 10
4 9 2 -2 -8 -10 -8 -15 -17 -11 -20 3 -4 1 -7 -6 -7 -7 0 -10 -4 -7 -8 3 -5
-3 -18 -13 -28 -10 -11 -17 -28 -15 -38 1 -10 0 -15 -3 -12 -3 3 -12 -6 -20
-21 -7 -14 -11 -28 -9 -31 3 -2 -1 -11 -9 -19 -8 -8 -15 -23 -15 -34 0 -10 -4
-19 -8 -19 -5 0 -9 -6 -9 -12 0 -7 -4 -26 -8 -43 -4 -16 -9 -45 -12 -62 -3
-18 -9 -30 -14 -27 -13 7 -7 -19 6 -28 6 -5 6 -8 -2 -8 -6 0 -10 -9 -8 -20 2
-11 1 -20 -3 -20 -4 0 -8 -9 -9 -20 -1 -13 2 -18 10 -14 8 5 8 3 0 -6 -16 -18
-19 -8153 -3 -8194 7 -19 6 -26 -3 -26 -8 0 -8 -3 -2 -8 6 -4 10 -17 9 -30 -1
-12 2 -22 7 -22 4 0 6 -9 4 -20 -2 -11 0 -22 5 -25 5 -3 6 -13 3 -22 -4 -9 -2
-14 3 -11 5 4 10 -8 11 -25 1 -17 6 -33 11 -36 4 -3 7 -13 7 -21 -1 -8 2 -19
6 -25 4 -5 8 -13 8 -18 0 -4 7 -20 15 -36 9 -16 12 -31 9 -35 -4 -3 0 -6 7 -6
7 0 11 -3 7 -6 -3 -4 1 -13 9 -21 8 -8 12 -19 9 -24 -4 -5 -1 -9 4 -9 6 0 11
-7 11 -15 0 -9 7 -18 15 -21 8 -4 12 -10 10 -15 -3 -5 3 -16 15 -26 11 -10 20
-23 20 -30 0 -7 5 -13 10 -13 6 0 10 -7 10 -15 0 -9 7 -18 15 -21 8 -3 17 -14
20 -25 4 -11 11 -17 16 -14 5 4 9 0 9 -8 0 -8 7 -18 16 -21 8 -3 12 -11 8 -17
-4 -7 -3 -9 3 -6 6 4 21 -7 34 -23 13 -16 30 -30 37 -30 7 0 10 -4 7 -10 -3
-5 0 -10 8 -10 8 0 18 -7 21 -16 4 -9 13 -14 22 -10 8 3 12 2 9 -3 -7 -12 35
-42 48 -34 6 3 7 1 3 -5 -4 -7 -1 -12 8 -12 9 0 16 -4 16 -10 0 -5 7 -10 15
-10 8 0 15 -4 15 -9 0 -9 58 -35 73 -32 4 0 7 -3 7 -9 0 -5 7 -10 15 -10 8 0
15 -4 15 -9 0 -6 9 -8 19 -6 11 2 22 -3 25 -11 3 -8 11 -14 18 -12 7 1 24 -4
36 -11 13 -7 26 -10 29 -7 4 3 12 1 20 -5 7 -6 13 -8 13 -4 0 4 8 1 17 -6 14
-12 15 -12 9 0 -7 10 -3 10 15 -2 13 -8 32 -13 42 -12 9 2 17 -1 17 -7 0 -6 7
-7 16 -4 9 4 23 1 30 -5 11 -9 14 -8 14 2 0 10 3 10 12 1 8 -8 17 -8 31 -1 14
8 18 8 13 0 -5 -8 800 -11 3008 -11 1659 0 3016 4 3016 9 0 4 18 7 40 7 22 -1
40 1 40 4 0 3 28 12 63 19 34 8 67 16 72 20 6 3 16 6 24 8 8 1 17 7 21 13 4 7
10 11 14 11 3 -1 7 -1 9 0 1 0 11 2 22 4 11 2 21 9 23 15 2 5 9 7 14 4 6 -4
17 2 25 12 8 10 15 17 16 15 4 -7 47 10 47 19 0 5 10 12 22 16 13 4 29 14 36
23 10 12 12 12 6 1 -4 -8 8 0 26 18 19 17 40 32 47 32 8 0 11 4 8 10 -3 5 -2
10 4 10 5 0 24 15 42 33 18 17 38 30 43 29 6 -2 8 -1 4 3 -3 4 9 23 28 43 19
20 34 40 34 45 0 4 4 6 9 2 5 -3 13 5 16 17 4 13 17 31 29 41 11 10 14 15 6
11 -8 -4 -5 3 8 15 12 12 22 28 22 36 0 8 4 15 9 15 5 0 11 9 14 20 9 33 9 34
26 47 9 7 12 13 7 13 -5 0 -4 6 2 13 16 19 61 135 54 141 -3 3 -1 6 4 6 5 0
11 9 12 20 1 11 3 29 4 40 1 11 6 20 11 20 4 0 5 5 2 10 -4 6 -1 18 7 27 11
14 11 16 -2 8 -12 -7 -13 -6 -3 6 16 20 33 255 19 277 -4 7 -4 12 1 12 9 0 8
134 -2 150 -3 5 -3 10 2 10 9 0 8 134 -2 150 -3 5 -3 10 2 10 9 0 7 775 -2
790 -3 6 -3 10 2 10 9 0 8 134 -2 150 -3 5 -3 10 2 10 9 0 8 134 -2 150 -3 5
-3 10 2 10 9 0 8 134 -2 150 -3 5 -3 10 2 10 9 0 7 775 -2 790 -3 6 -3 10 2
10 9 0 8 134 -2 150 -3 5 -3 10 2 10 9 0 8 134 -2 150 -3 5 -3 10 2 10 9 0 8
134 -2 150 -3 5 -3 10 2 10 9 0 7 775 -2 790 -3 6 -3 10 2 10 9 0 8 134 -2
150 -3 5 -3 10 2 10 9 0 8 134 -2 150 -3 5 -3 10 2 10 9 0 8 134 -2 150 -3 5
-3 10 2 10 9 0 7 775 -2 790 -3 6 -3 10 2 10 9 0 8 134 -2 150 -3 5 -3 10 2
10 9 0 8 134 -2 150 -3 5 -3 10 2 10 9 0 8 134 -2 150 -3 5 -3 10 2 10 9 0 7
775 -2 790 -3 6 -3 10 2 10 9 0 8 134 -2 150 -3 5 -3 10 2 10 9 0 8 134 -2
150 -3 5 -3 10 2 10 9 0 8 134 -2 150 -3 5 -3 10 2 10 9 0 7 775 -2 790 -3 6
-3 10 2 10 9 0 8 134 -2 150 -3 5 -3 10 2 10 9 0 8 228 -1 237 -2 3 -1 16 4
28 6 16 5 25 -3 28 -9 3 -9 10 1 27 8 12 9 19 3 15 -6 -3 -12 2 -12 14 -3 47
-5 56 -10 66 -4 6 -5 20 -4 32 1 12 -5 25 -12 27 -10 4 -11 11 -4 25 8 14 7
20 -4 25 -8 3 -12 12 -9 21 4 8 1 15 -7 15 -7 0 -10 3 -7 6 9 8 -22 94 -34 94
-5 0 -8 6 -5 13 2 6 -5 24 -15 40 -11 15 -16 27 -12 27 4 0 -3 11 -16 25 -13
14 -20 25 -15 25 5 0 0 7 -11 16 -10 8 -12 13 -4 9 10 -4 9 -2 -2 8 -10 8 -18
18 -18 23 0 5 -18 28 -40 52 -22 23 -37 42 -34 42 3 0 -19 25 -50 55 -30 30
-60 55 -66 55 -6 0 -8 5 -5 10 3 6 3 10 -2 10 -4 0 -21 12 -38 26 -16 14 -43
32 -58 40 -15 8 -25 19 -22 24 3 5 -4 7 -15 5 -11 -2 -20 0 -20 5 0 10 -146
83 -166 83 -8 0 -14 4 -14 9 0 4 -9 8 -20 8 -11 0 -20 5 -20 11 0 6 -8 9 -19
6 -10 -2 -27 0 -37 6 -19 11 -41 16 -81 19 -13 1 -23 6 -23 11 0 5 -7 6 -16 3
-9 -4 -23 -1 -30 5 -11 9 -14 9 -14 0 0 -8 -5 -9 -18 -2 -13 7 -23 6 -32 -2
-10 -9 -11 -9 -6 1 6 10 -587 12 -2991 11 -1690 -1 -3018 -5 -3043 -10z"/>
</g>
</svg>
