<?xml version="1.0" standalone="no"?>
<!DOCTYPE svg PUBLIC "-//W3C//DTD SVG 20010904//EN"
 "http://www.w3.org/TR/2001/REC-SVG-20010904/DTD/svg10.dtd">
<svg version="1.0" xmlns="http://www.w3.org/2000/svg"
 width="512.000000pt" height="512.000000pt" viewBox="0 0 512.000000 512.000000"
 preserveAspectRatio="xMidYMid meet">
<metadata>
Created by potrace 1.11, written by Peter Selinger 2001-2013
</metadata>
<g transform="translate(0.000000,512.000000) scale(0.100000,-0.100000)"
fill="#000000" stroke="none">
<path d="M0 2560 l0 -2560 2560 0 2560 0 0 2560 0 2560 -2560 0 -2560 0 0
-2560z m3035 1610 c496 -49 748 -203 810 -497 12 -56 15 -213 15 -909 0 -806
-1 -844 -20 -918 -26 -103 -69 -177 -151 -257 -82 -82 -179 -133 -301 -157
l-87 -18 119 -119 c111 -111 120 -123 120 -157 l0 -38 -168 0 -167 0 -160 160
-160 160 -305 0 -305 0 -160 -160 -160 -160 -187 0 -188 0 0 38 c0 34 9 46
120 157 l119 119 -87 18 c-229 46 -401 206 -457 423 -22 86 -22 1751 0 1834
45 169 171 299 366 378 140 56 368 99 609 113 169 11 638 4 785 -10z"/>
<path d="M1587 3533 c-4 -3 -7 -150 -7 -325 l0 -318 410 0 410 0 -2 323 -3
322 -401 3 c-220 1 -403 -1 -407 -5z"/>
<path d="M2727 3533 c-4 -3 -7 -150 -7 -325 l0 -318 410 0 410 0 -2 323 -3
322 -401 3 c-220 1 -403 -1 -407 -5z"/>
<path d="M1730 2215 c-111 -50 -169 -174 -136 -290 52 -176 275 -234 404 -105
54 53 67 87 67 171 0 67 -3 81 -30 124 -16 26 -50 62 -73 79 -39 27 -53 31
-120 34 -53 1 -88 -3 -112 -13z"/>
<path d="M3183 2209 c-125 -61 -171 -226 -97 -345 127 -205 449 -114 447 126
-1 98 -54 182 -138 221 -57 26 -157 25 -212 -2z"/>
</g>
</svg>
