<?xml version="1.0" standalone="no"?>
<!DOCTYPE svg PUBLIC "-//W3C//DTD SVG 20010904//EN"
 "http://www.w3.org/TR/2001/REC-SVG-20010904/DTD/svg10.dtd">
<svg version="1.0" xmlns="http://www.w3.org/2000/svg"
 width="1024.000000pt" height="1024.000000pt" viewBox="0 0 1024.000000 1024.000000"
 preserveAspectRatio="xMidYMid meet">
<metadata>
Created by potrace 1.14, written by Peter Selinger 2001-2017
</metadata>
<g transform="translate(0.000000,1024.000000) scale(0.100000,-0.100000)"
fill="#000000" stroke="none">
<path d="M1820 10231 c0 -6 -10 -8 -22 -6 -12 3 -26 1 -32 -4 -6 -4 -21 -7
-33 -6 -13 1 -23 -2 -23 -6 0 -5 -16 -11 -35 -15 -19 -3 -35 -10 -35 -15 0 -5
-7 -6 -15 -3 -8 4 -15 1 -15 -6 0 -6 -4 -9 -9 -5 -5 3 -12 1 -16 -5 -4 -6 -11
-7 -17 -4 -8 5 -9 1 -5 -10 4 -10 3 -15 -3 -11 -13 8 -107 -43 -124 -67 -8
-11 -18 -18 -23 -16 -10 6 -43 -28 -35 -36 3 -3 0 -6 -7 -6 -11 0 -98 -82 -93
-88 3 -3 -17 -28 -40 -49 -9 -9 -15 -20 -12 -25 3 -4 0 -8 -5 -8 -6 0 -11 -7
-11 -15 0 -8 -4 -15 -10 -15 -5 0 -10 -7 -10 -15 0 -8 -5 -15 -10 -15 -6 0 -9
-3 -8 -7 1 -5 -3 -18 -10 -29 -6 -12 -8 -24 -5 -28 3 -3 0 -6 -7 -6 -7 0 -10
-3 -7 -7 4 -3 3 -11 -2 -17 -5 -6 -11 -22 -13 -36 -1 -14 -7 -28 -12 -31 -4
-4 -9 -21 -10 -38 0 -17 -3 -31 -7 -31 -3 0 -7 -15 -9 -32 -2 -18 -4 -2004 -4
-4413 -1 -3660 1 -4384 12 -4404 8 -13 9 -20 3 -17 -6 4 -4 -8 4 -27 8 -19 11
-37 8 -41 -4 -3 -2 -6 4 -6 5 0 10 -7 11 -15 1 -8 3 -22 4 -30 1 -8 5 -15 10
-15 4 0 8 -9 8 -20 0 -11 5 -20 10 -20 6 0 10 -9 10 -20 0 -11 5 -20 11 -20 5
0 7 -5 4 -10 -3 -6 -1 -10 5 -10 6 0 8 -4 5 -10 -3 -5 -1 -10 6 -10 7 0 10 -3
6 -6 -3 -3 -1 -11 4 -18 41 -49 48 -60 42 -69 -3 -5 -2 -8 3 -5 5 3 17 -3 27
-14 9 -10 14 -18 10 -18 -5 0 0 -5 10 -11 9 -6 14 -15 11 -21 -4 -6 -3 -8 3
-5 12 8 46 -27 36 -36 -3 -4 3 -7 15 -7 13 0 22 -6 22 -15 0 -8 7 -15 15 -15
8 0 15 -4 15 -10 0 -5 7 -10 15 -10 8 0 15 -4 15 -10 0 -5 6 -10 14 -10 8 0
22 -10 30 -22 9 -12 16 -19 16 -14 0 4 16 -2 35 -14 19 -12 35 -18 35 -13 0 4
4 4 8 -2 11 -16 50 -35 71 -35 10 0 31 -6 46 -14 15 -8 38 -13 51 -11 13 1 24
-2 24 -7 0 -6 7 -8 15 -4 8 3 15 0 15 -7 0 -8 3 -8 9 2 6 9 11 10 15 2 8 -13
6556 -16 6556 -3 0 4 15 8 33 9 46 2 127 23 127 33 0 5 9 7 20 5 11 -2 20 0
20 6 0 5 6 9 13 9 17 0 80 30 88 43 3 5 9 8 13 8 16 -1 35 12 29 22 -3 5 -1 7
5 3 6 -3 17 1 25 9 9 8 20 15 26 15 6 0 11 5 11 11 0 5 5 7 10 4 6 -3 10 1 10
9 0 9 4 16 10 16 18 0 60 43 53 54 -3 6 -3 8 1 4 10 -8 56 32 56 49 0 7 7 13
16 13 8 0 12 5 9 10 -3 6 1 13 10 16 13 6 14 8 3 15 -10 7 -9 9 5 9 9 0 17 7
17 15 0 8 5 15 11 15 5 0 7 4 4 10 -3 5 -1 10 5 10 6 0 9 4 6 9 -3 5 1 12 10
15 8 3 12 10 9 16 -3 5 -1 10 5 10 6 0 9 4 5 9 -3 5 1 15 8 23 8 7 12 18 10
25 -2 6 1 14 6 18 6 3 11 17 11 31 0 14 4 23 8 20 5 -3 9 0 10 7 3 46 10 86
16 95 15 24 25 319 12 341 -4 6 -4 11 1 11 9 0 8 134 -2 150 -3 5 -3 10 2 10
9 0 8 134 -2 150 -3 5 -3 10 2 10 9 0 8 134 -2 150 -3 5 -3 10 2 10 9 0 7 775
-2 790 -3 6 -3 10 2 10 9 0 8 134 -2 150 -3 5 -3 10 2 10 9 0 8 134 -2 150 -3
5 -3 10 2 10 9 0 8 134 -2 150 -3 5 -3 10 2 10 9 0 7 775 -2 790 -3 6 -3 10 2
10 9 0 8 134 -2 150 -3 5 -3 10 2 10 9 0 8 134 -2 150 -3 5 -3 10 2 10 9 0 8
134 -2 150 -3 5 -3 10 2 10 9 0 7 775 -2 790 -3 6 -3 10 2 10 9 0 8 134 -2
150 -3 5 -3 10 2 10 9 0 8 134 -2 150 -3 5 -3 10 2 10 9 0 8 134 -2 150 -3 5
-3 10 2 10 9 0 7 775 -2 790 -3 6 -3 10 2 10 9 0 8 134 -2 150 -3 5 -3 10 2
10 9 0 8 134 -2 150 -3 5 -3 10 2 10 9 0 8 134 -2 150 -3 5 -3 10 2 10 9 0 7
775 -2 790 -3 6 -3 10 2 10 9 0 8 134 -2 150 -3 5 -3 10 2 10 9 0 8 134 -2
150 -3 5 -3 10 2 10 9 0 8 134 -2 150 -3 5 -3 10 2 10 9 0 7 775 -2 790 -3 6
-3 10 2 10 9 0 8 134 -2 150 -3 5 -3 10 2 10 9 0 8 134 -2 150 -3 5 -3 10 2
10 9 0 8 134 -2 150 -3 5 -2 10 4 10 5 0 8 9 6 20 -8 39 -7 218 0 230 5 9 4
11 -3 6 -8 -5 -12 4 -12 26 0 19 -6 40 -12 47 -11 11 -10 12 2 6 13 -8 13 -7
1 8 -7 9 -10 17 -6 17 5 0 0 10 -11 22 -10 12 -13 18 -5 13 11 -6 13 -4 7 11
-5 10 -11 28 -14 39 -3 11 -9 23 -14 26 -5 3 -10 16 -11 27 -1 12 -5 22 -9 22
-4 0 -8 5 -8 11 0 6 -10 25 -22 42 -13 18 -22 33 -20 35 7 7 0 22 -8 17 -5 -3
-10 1 -10 10 0 8 -9 23 -20 32 -11 10 -20 23 -20 31 0 7 -5 10 -10 7 -5 -3
-10 -1 -10 4 0 15 -81 97 -91 93 -5 -1 -9 3 -9 8 0 6 -16 20 -35 31 -19 12
-32 25 -29 30 3 5 2 9 -3 8 -10 -3 -47 12 -53 22 -3 4 -12 9 -20 11 -8 2 -21
9 -28 16 -8 7 -18 10 -23 7 -5 -4 -9 -2 -9 3 0 9 -37 25 -53 23 -4 -1 -18 4
-30 11 -26 14 -43 19 -74 21 -13 0 -23 5 -23 11 0 5 -3 7 -6 3 -3 -3 -17 -2
-31 4 -17 6 -22 6 -17 -2 5 -8 1 -8 -14 0 -27 14 -6562 16 -6562 2z"/>
</g>
</svg>
